<?xml version="1.0" encoding="UTF-8" standalone="no"?>
<!-- Created with Inkscape (http://www.inkscape.org/) -->

<svg
   version="1.1"
   id="svg41"
   width="20mm"
   height="20mm"
   viewBox="0 0 75.590552 75.59055"
   sodipodi:docname="icon.svg"
   inkscape:version="1.1.1 (c3084ef, 2021-09-22)"
   inkscape:export-filename="/Users/sashachekunov/Downloads/icon_864.png"
   inkscape:export-xdpi="1097.28"
   inkscape:export-ydpi="1097.28"
   xmlns:inkscape="http://www.inkscape.org/namespaces/inkscape"
   xmlns:sodipodi="http://sodipodi.sourceforge.net/DTD/sodipodi-0.dtd"
   xmlns="http://www.w3.org/2000/svg"
   xmlns:svg="http://www.w3.org/2000/svg">
  <defs
     id="defs45" />
  <sodipodi:namedview
     id="namedview43"
     pagecolor="#ffffff"
     bordercolor="#666666"
     borderopacity="1.0"
     inkscape:pageshadow="2"
     inkscape:pageopacity="0.0"
     inkscape:pagecheckerboard="0"
     showgrid="false"
     inkscape:zoom="0.71096898"
     inkscape:cx="492.98916"
     inkscape:cy="75.249415"
     inkscape:window-width="1280"
     inkscape:window-height="671"
     inkscape:window-x="0"
     inkscape:window-y="25"
     inkscape:window-maximized="0"
     inkscape:current-layer="layer4"
     width="67.44px"
     units="mm"
     fit-margin-top="0"
     fit-margin-left="0"
     fit-margin-right="0"
     fit-margin-bottom="0"
     inkscape:document-units="mm" />
  <g
     inkscape:groupmode="layer"
     id="layer4"
     inkscape:label="background"
     style="display:inline">
    <rect
       style="fill:#ffeb3b;fill-opacity:1;fill-rule:nonzero;stroke:none;stroke-width:0.597476;stroke-linecap:round;stroke-linejoin:round;stroke-miterlimit:4;stroke-dasharray:none;stroke-dashoffset:0;stroke-opacity:1;paint-order:markers fill stroke"
       id="rect44416"
       width="188.37891"
       height="188.37891"
       x="-56.316128"
       y="-56.447796"
       rx="0"
       ry="0"
       inkscape:export-filename="/Users/sashachekunov/Downloads/icon_android_12.png"
       inkscape:export-xdpi="587.07208"
       inkscape:export-ydpi="587.07208" />
  </g>
  <g
     inkscape:groupmode="layer"
     id="layer1"
     inkscape:label="logo"
     transform="translate(-0.06044453,-0.23738971)"
     style="display:inline">
    <g
       id="g42078">
      <path
         id="path186"
         style="fill:none;fill-opacity:1;stroke:#000000;stroke-width:0.5;stroke-linecap:butt;stroke-linejoin:miter;stroke-miterlimit:4;stroke-dasharray:none;stroke-dashoffset:0;stroke-opacity:1"
         d="m 37.724778,79.498055 2.624572,-4.673694 1.463266,-2.591393 c 0,0 0.89619,-1.604914 0.971784,-1.701066 0.853187,-1.085218 1.622276,-0.586052 1.919067,-0.406936 l 2.26021,1.308646 3.014557,1.852349 2.602217,1.388414 c 0,0 3.696677,1.055962 5.474106,-0.920135 0,0 1.819708,-1.384615 -3.052211,-3.999337 l -4.084341,-2.298569 -3.594158,-2.052326 c 0,0 -1.322018,-0.956028 -0.592894,-2.489704 0.729125,-1.533675 1.93244,-0.379248 1.93244,-0.379248 l 7.710047,4.610917 5.337099,3.029475 c 1.250769,0.485772 2.501538,0.552762 3.752307,0.508847 1.170862,-0.150772 2.334486,-0.359452 3.400454,-1.349375 l 1.792616,-2.183414 2.258632,-3.453811 4.090242,-7.290334 c 0.474011,-0.844865 2.470085,-4.600082 2.470085,-4.600082 0,0 2.870988,-4.3408 -7.48385,-10.301001 l -9.140048,-5.260973 c 0,0 -8.682709,-4.196581 -12.759117,2.918605 -4.076408,7.115185 -5.233706,9.036356 -5.233706,9.036356 0,0 -2.172243,3.687706 -6.559395,0.556719 l -5.075238,-3.038167 c 0,0 -5.045737,-2.699764 -5.930785,-3.411949 -1.813676,-1.459438 -1.655073,-2.381217 -1.535923,-3.512963 0.158768,-1.508061 2.611372,-0.921991 2.611372,-0.921991 0,0 -1.185248,-0.712169 4.56054,2.730614 3.152774,1.889091 0,0 0,0 0,0 3.585486,2.683189 5.945639,1.66163 1.064165,-0.460609 3.546706,-1.773489 2.342311,-2.504962 l -2.952012,-1.792866 -4.629275,-2.786197 v 0 c 0,0 -4.761535,-1.773764 -1.320612,-7.669817 1.388877,-2.379854 4.332458,-7.414995 4.332458,-7.414995 3.447367,-6.432376 9.22708,-12.3094653 2.580479,-16.6964322 L 28.959955,-3.3781534 C 20.08431,-8.5586914 15.436806,-10.06452 12.007784,-8.7119774 8.5572685,-7.3509564 6.1580885,-2.8051744 3.4648102,1.5170758 L 0.53766693,6.2146385 C -0.47984443,7.8186057 -2.7983584,11.707747 -2.3009784,13.15597 c 0,0 3.05255989,1.236115 5.9552569,0.945846 2.902697,-0.29027 5.396103,-3.491588 5.396103,-3.491588 0,0 1.6278035,-3.2581623 4.3796995,-7.4007502 3.30868,-4.9807442 13.587188,3.1657029 13.587188,3.1657029 -0.08477,0.236886 4.866232,3.1634887 0.798485,9.8909243 l -3.686721,6.097277 c 0,0 -2.640414,5.816926 -5.450421,4.14211 l -7.704994,-4.592319 c 0,0 -1.4478235,-1.111856 -3.8527685,-0.692139 -1.406594,0.245481 -3.273003,2.035045 -2.226873,2.76806 2.928291,2.05183 5.6737515,3.586595 5.6737515,3.586595 l 5.245778,3.08418 c 0,0 2.409504,1.319125 1.593698,3.094722 -0.948668,2.06477 -4.789872,-0.252607 -4.789872,-0.252607 v 0 L 6.8775776,30.324857 c 0,0 -2.6814411,-0.993111 -4.3257354,-0.336357 -0.9664815,0.386026 -1.87057601,0.718762 -2.76097963,1.542501 -1.53521107,1.420269 0.72253926,2.656608 0.72253926,2.656608 l 5.87311367,3.648164 4.4865955,2.604615 c 2.56985,1.398971 0.792088,4.097139 -0.296376,5.777021 l -1.9401765,3.26335 -3.993243,6.99318 -2.6935873,4.769906 c 0.071726,-0.0034 -1.03192251,1.665479 0.1485418,3.088234 0,0 1.0131412,1.26596 4.3741825,0.743149 2.866095,-0.445822 4.6921815,-1.549497 7.3694265,-5.075182 l 4.057077,-6.961421 1.505125,-2.673984 c 0,0 0.846411,-1.72484 1.41967,-2.373161 1.58016,-1.787069 6.720184,2.005834 7.784506,2.586373 1.064322,0.58054 5.538658,3.228371 5.538658,3.228371 l 4.354045,2.612427 c 0,0 1.451349,0.967566 0.387026,2.225401 -1.064322,1.257835 -2.443916,0.230804 -2.443916,0.230804 l -2.026364,-1.174051 -2.781921,-1.616801 c 0,0 -1.881012,-0.896809 -3.748499,-0.73963 -0.885701,0.07455 -1.816573,0.234854 -2.464771,0.68314 0,0 -2.10307,1.320183 0.129645,2.673779 l 4.260535,2.582973 3.904893,2.313747 c 0,0 2.048535,0.819447 -0.263752,4.667739 l -3.605194,6.000051 -3.175281,5.426036 c 0,0 -1.767833,3.14113 -0.190186,3.580238 1.42381,0.396291 3.531553,0.242084 3.531553,0.242084 0,0 4.677203,0.285639 7.71005,-4.016102 z"
         sodipodi:nodetypes="ccssscccccccscccccccscscscccsscscsscccscscssccscscscscssccscccssccccccccscccssccscccscsccsccsccc" />
      <path
         id="path42422"
         style="fill:#363135;fill-opacity:1;stroke:#000000;stroke-width:0.5;stroke-linecap:butt;stroke-linejoin:miter;stroke-miterlimit:4;stroke-dasharray:none;stroke-dashoffset:0;stroke-opacity:1"
         d="m 14.404297,-9.4179688 c -0.898215,0.013769 -1.706933,0.1728814 -2.457031,0.46875 C 8.4967501,-7.5881977 6.0975752,-3.0429533 3.4042969,1.2792969 L 0.4765625,5.9765625 c -1.01751136,1.6039672 -3.3352706,5.4931835 -2.8378906,6.9414065 0,0 3.05238109,1.237534 5.9550781,0.947265 2.902697,-0.29027 5.3964844,-3.492187 5.3964844,-3.492187 0,0 1.6270106,-3.2578028 4.3789066,-7.4003908 3.30868,-4.9807442 13.58789,3.1660157 13.58789,3.1660157 -0.08477,0.236886 4.866575,3.1631894 0.798828,9.8906251 l -3.6875,6.097656 c 0,0 -2.639211,5.815441 -5.449218,4.140625 l -7.705079,-4.591797 c 0,0 -1.4485701,-1.111123 -3.8535151,-0.691406 -1.406594,0.245481 -3.2726925,2.034563 -2.2265625,2.767578 2.928291,2.05183 5.6738286,3.585938 5.6738276,3.585938 l 5.246094,3.083984 c 0,0 2.409556,1.320106 1.59375,3.095703 -0.948668,2.06477 -4.791015,-0.253906 -4.791015,-0.253906 L 6.8164062,30.087891 c 0,0 -2.6799244,-0.992692 -4.3242187,-0.335938 C 1.525706,30.137979 0.62087237,30.46923 -0.26953125,31.292969 -1.8047423,32.713238 0.453125,33.951172 0.453125,33.951172 l 5.8730469,3.646484 4.4863281,2.605469 c 2.56985,1.398971 0.791589,4.097462 -0.296875,5.777344 l -1.9394531,3.263672 -3.9941407,6.992187 -2.6933593,4.769531 c 0.071726,-0.0034 -1.03202684,1.665136 0.1484375,3.087891 0,0 1.0139587,1.266952 4.375,0.744141 2.866095,-0.445822 4.6918956,-1.550487 7.3691406,-5.076172 l 4.056641,-6.960938 1.505859,-2.673828 c 0,0 0.846663,-1.724726 1.419922,-2.373047 1.58016,-1.787069 6.718881,2.005399 7.783203,2.585938 1.064322,0.58054 5.539062,3.228515 5.539063,3.228515 l 4.355468,2.613282 c 0,0 1.451042,0.966774 0.386719,2.224609 -1.064322,1.257835 -2.445313,0.230469 -2.445313,0.230469 l -2.02539,-1.173828 -2.78125,-1.617188 c 0,0 -1.882513,-0.89546 -3.75,-0.738281 -0.885701,0.07455 -1.816646,0.235308 -2.464844,0.683594 0,0 -2.101855,1.320232 0.13086,2.673828 l 4.259765,2.582031 3.904297,2.314453 c 0,0 2.048615,0.819677 -0.263672,4.667969 l -3.603516,6 -3.175781,5.425781 c 0,0 -1.769053,3.14097 -0.191406,3.580078 1.42381,0.396291 3.533203,0.242188 3.533203,0.242188 0,0 4.676137,0.284163 7.708984,-4.017578 l 2.625,-4.671875 1.462891,-2.591797 c 0,0 0.897062,-1.60502 0.972656,-1.701172 0.853187,-1.085218 1.621178,-0.587319 1.917969,-0.408203 l 2.259766,1.308593 3.015625,1.853516 2.601562,1.388672 c 0,0 3.697181,1.056175 5.47461,-0.919922 0,0 1.819184,-1.385278 -3.052735,-4 l -4.083984,-2.298828 -3.59375,-2.052734 c 0,0 -1.322874,-0.954606 -0.59375,-2.488282 0.729125,-1.533675 1.933594,-0.380859 1.933594,-0.380859 l 7.708984,4.611328 5.337891,3.029297 c 1.250769,0.485772 2.501184,0.553681 3.751953,0.509766 1.170862,-0.150772 2.334422,-0.359687 3.40039,-1.34961 l 1.792969,-2.183594 2.257813,-3.453124 4.091796,-7.291016 c 0.474012,-0.844865 2.468751,-4.59961 2.46875,-4.59961 0,0 2.870463,-4.34058 -7.484374,-10.300781 l -9.138672,-5.261719 c 0,0 -8.683358,-4.197217 -12.759766,2.917969 -4.076408,7.115185 -5.234375,9.03711 -5.234375,9.03711 0,0 -2.171442,3.687627 -6.558594,0.55664 l -5.076172,-3.039062 c 0,0 -5.044639,-2.697972 -5.929687,-3.410157 -1.813676,-1.459437 -1.654306,-2.381925 -1.535156,-3.513671 0.158768,-1.508061 2.611328,-0.921875 2.611328,-0.921875 0,0 -1.185241,-0.712315 4.560547,2.730468 0,0 3.585159,2.683669 5.945312,1.66211 1.064165,-0.460609 3.546192,-1.774387 2.341797,-2.50586 l -2.951172,-1.792968 -4.630859,-2.785157 c 0,0 -4.761236,-1.773869 -1.320313,-7.669921 1.388877,-2.379855 4.332032,-7.416016 4.332032,-7.416016 C 40.033304,13.425046 45.81457,7.5490763 39.167969,3.1621094 L 28.900391,-3.6152344 C 21.966293,-7.6625297 17.612207,-9.4671423 14.404297,-9.4179688 Z M 58.695312,44.533203 c 1.181285,0.03752 2.419922,0.765625 2.419922,0.765625 l 5.019532,3.064453 c 4.65528,2.840738 1.603515,6.458985 1.603515,6.458985 l -2.642578,4.251953 c -2.25238,3.626 -5.431641,2.033203 -5.431641,2.033203 l -5.21875,-3.132813 c -3.52022,-2.113669 -2.390624,-4.078125 -2.390624,-4.078125 l 3.099609,-5.404296 1.755859,-2.972657 c 0.387027,-0.781652 1.076386,-1.008837 1.785156,-0.986328 z"
         transform="translate(0.06044453,0.23738971)" />
    </g>
  </g>
</svg>
